<svg xmlns="http://www.w3.org/2000/svg" version="1.1" xmlns:xlink="http://www.w3.org/1999/xlink" xmlns:svgjs="http://svgjs.dev/svgjs" viewBox="0 0 1422 800"><defs><linearGradient x1="50%" y1="0%" x2="50%" y2="100%" id="ssscribble-grad"><stop stop-color="hsl(105, 69%, 40%)" stop-opacity="1" offset="0%"></stop><stop stop-color="hsl(105, 69%, 60%)" stop-opacity="1" offset="100%"></stop></linearGradient></defs><g fill="none" stroke-width="1.5" stroke="url(#ssscribble-grad)" stroke-linecap="round"><path d="M1403.24 395.6C1313.49 428.46 1169.22 432.65 1031.77 412.24 950.62 396.42 949.8 371 1017.31 361.39 1128.25 395.59 1233.87 486.9 1300.08 640.9 1315.51 804.7 1272.97 930.01 1189.58 938.89 1079.2 825.74 966.02 654.88 866.24 568.13 779.85 666.49 716.61 895.24 672.35 1060.65 641.54 1001.15 619.24 775.34 597.95 639.51 580.15 771.01 556.32 1026.34 523.46 1087.61 490.6 872.24 450.27 660.69 406.09 705.2 346.67 1007.99 293.67 659.07 333.97 636.92 383.1 815.87 449.1 954.23 516.41 955.35 556.74 824.52 560.32 642.31 510.67 495.31 410.25 414.62 275.15 410.38 140.13 445.31 48.53 507.63 30.64 555.89 99.11 576.5 223.88 592.68 361.49 582.71 451.24 549.85 447.32 517 357.85 462.81 227.01 384.66 103 302.09 40.45 194.06 57.68 74.78 145.4 -17.1 274.92 -66.99 406.71 -36.98 514.89 59.35 576.87 194.4 592.78 282.18 567.18 238.02 519.72 60.72 469.32 -152.44 415.97 -236.73 380.16 -121.86 364.84 93.53 359.18 175.11 370.56 19.7 393.39 -227.4 419.92 -284.65 451.17 -79.81 484.03 135.59 516.89 74.41 549.8 -174.25 585.25 -293.14 624.4 -144.66 672.79 99.85 735.4 183.48 807.67 42.17 897.59 -157.1 1001.59 -221.27 1102.64 -100.32 1197.28 109.5 1265.94 265.72 1293.11 299.92 1270.09 221.79 1196.13 108.64 1098.56 5.29 998.5 -31.91 934.87 -9.16 941.72 57.39 1022.98 142.59 1159.67 220.38 1303.19 302.77 1399.32 362.74 1403.24 395.6Q1403.24 395.6 1403.24 395.6" opacity="0.68"></path><path d="M1369.24 182.61C1288.37 213.12 1156.94 236.86 1024.17 262.25 931.54 298.38 904.63 355.73 941.56 448.3 1028.69 561.8 1129.6 700.26 1213.09 829.47 1265.94 897.35 1270.53 877.22 1232.23 759.78 1159.66 617.58 1067.78 529.52 972.87 584.74 876.43 769.32 793.08 970.01 725.56 1025.32 666.22 887.7 619.65 677.8 581.82 611.12 547.14 773.45 515.54 1006.54 485.02 1053.61 454.51 857.96 426.53 643.94 403.67 636.9 383.95 832.27 375.01 1015.41 381.47 1010.74 396.11 826.04 429.21 619.84 478.62 540.59 526.5 622.13 574.57 779.76 607.15 897.2 605.46 917.9 564.69 830.39 480.06 690.52 364.81 536.04 236.53 420.27 127.03 352.31 67.74 321.5 77.28 316.69 158.13 315.45 279.12 322.42 404.37 314.14 485.24 283.63 484.92 253.13 409.32 201.83 292.04 137.31 130.58 55.66 177.87 56.03 349.42 196.23 469.52 289.09 562.92 332.81 620.27 272.15 641.19 114.73 632.29 -79.07 607.2 -192.41 567.17 -144.97 530.63 33.84 505.41 196.2 477.84 78.31 498.83 -129.99 539.38 169.59 569.89 122.6 609.4 -104.28 658.41 -254.89 709.47 -176.48 773.13 50.77 849.5 210.79 927.6 177.87 1014.39 4.56 1101.45 -148.26 1173.57 -171.72 1226.27 -47.49 1245.35 134.69 1228 292.13 1170.78 356.07 1082.45 335.23 993 253.05 919.72 164.83 891.67 104.21 928.01 64.52 1024.32 62.68 1158.08 84.1 1287.14 116.26 1368.92 152.09 1369.24 182.61Q1369.24 182.61 1369.24 182.61" opacity="0.98"></path><path d="M1335.24 271.11C1262.94 299.28 1144.58 347.22 1018.89 415.84 919.51 487.14 871.16 579.81 878.62 683.92 936.7 769.96 1020.94 831.28 1105.96 836.63 1180.05 781.97 1221.05 670.71 1225.65 545.64 1198.53 484.77 1144.08 529.22 1074.74 687.76 993.34 877.25 913.11 990.61 840.98 938.65 770.13 762.54 710.64 596.96 662.72 596.94 616.4 777.8 579.25 985.49 551.09 1019.61 514 738.24 497.19 822.72 523.36 1002.81 546.67 911.45 580.52 716.54 618.51 551.69 644.44 501.09 658.45 574.36 648.65 702.08 607.14 823.69 532.73 871.88 429.32 842.54 314.97 751.49 205.47 633.99 126.75 523.38 98.64 417.88 130.96 340.37 219.47 286.78 334.29 241.08 446.94 206.96 519.24 178.79 522.03 150.62 459.55 129.74 356.78 122.32 240.97 122.79 152.25 149.07 113.03 205.75 127.75 267.55 193.74 338.67 291.41 386.31 404.76 372.24 510.76 283.61 595.43 125.09 655.85 -39.53 688.15 -146.21 698.91 -124.95 690.46 10.55 674.3 180.21 659.22 250.95 634.03 42.23 638.72 -74.94 674.09 203.59 702.26 169.55 742.86 -32.41 794.55 -202.44 846.23 -191.6 908.21 -10.01 976.84 186.76 1040.74 259.4 1103.29 171.31 1155.14 11.15 1187.8 -118.07 1195.94 -129.14 1172.43 -31.36 1124.68 130.62 1052.08 282.33 968.05 380.4 899.71 418.45 858.98 403.52 864.9 366.29 924.77 311 1029.52 269.57 1156.21 251.39 1269.85 235.88 1338.03 242.95 1335.24 271.11Q1335.24 271.11 1335.24 271.11" opacity="0.70"></path><path d="M1301.24 538.36C1237.18 564.18 1131.99 606.15 1015.41 658.27 881.64 725.41 887.83 742.63 990.4 636.35 1068.29 545.32 1129.48 463.62 1165.71 437.45 1179.47 497.54 1166.26 638.89 1132.94 814.85 1083.71 936.45 1026.07 941.17 967.79 813.65 905.38 641.36 848.89 538.13 801.64 595.76 754.22 782.97 716.92 963.11 691.1 985.61 658.72 727.94 654.21 714.04 676.64 941.46 690.17 951.49 705.29 827.55 714.73 651.53 708.25 505.91 684.39 455.83 636.79 496.85 566.73 601.56 474.92 709.6 370.14 781.25 270.36 811.11 187.87 789.63 141.56 737.02 141.31 661.14 190.99 584.12 282.61 519.68 389.22 453.74 489.18 406.56 553.24 380.74 558.63 354.92 508.42 351.68 420.65 368.94 314.48 384.68 222.37 414.73 165.01 445.87 148.91 453.73 179.3 432.69 245.47 363.04 336.91 251.59 436.49 106.49 529.8 -32.05 613.29 -106.92 676.98 -87.46 721.07 31.26 748.77 180.39 763.12 281.18 770.73 252.26 771.39 -1.4 792.54 -17.5 825.82 237.58 851.64 215.15 887.14 40.27 930.06 -137 971.5 -184.7 1017.12 -66.81 1061.89 124.4 1099.03 270.87 1127.19 289.33 1139.28 194.61 1134.99 45.54 1108.36 -65.2 1058.72 -91.46 999.24 -31.45 930.28 87.3 865.72 218.13 826.44 342.34 819.2 428.6 854.23 478.01 930.51 500.23 1037.32 504.73 1153.45 507.52 1251.19 504.09 1306.63 512.54 1301.24 538.36Q1301.24 538.36 1301.24 538.36" opacity="0.42"></path><path d="M1267.39 613.58C1211.44 637.05 1119.44 652.4 1013.67 655.77 914 653.88 839.24 631.65 799.31 585.55 797.58 534.09 828.01 468.82 878.94 408.84 945.23 385.33 1008.98 409.51 1060.41 497.55 1101.18 630.68 1121.35 781.14 1122.49 892.01 1109.92 912.01 1084.08 827.46 1050.87 672.27 1011.28 539.2 970.95 504.13 934.14 605.4 896.01 787.69 864.2 939.18 840.73 951.5 817.26 813.7 803.23 625.19 797.1 512.13 789.64 539.34 787.27 678.04 786.19 833.63 778.72 924.04 765.9 897.65 742.29 779.13 704.98 618.53 651.12 485 579.58 415.85 497.38 417.59 405.8 473.23 315.07 548.58 239.7 632.26 188.23 691.56 172.75 720.44 195.47 730.38 256.88 717.44 347.48 693.16 444.19 662.56 531.44 632.74 587.39 609.27 594.64 585.8 555.46 569.78 482.57 556.11 388.67 536.14 299 506.37 231.24 455.76 191.74 386.2 190.28 288.24 222.83 168.39 283.17 56.86 361.26 -32.47 445.04 -64.98 531.32 -26.59 608.67 79.11 673.04 215.26 728 309.35 769.78 314.68 801.28 207.07 825.94 34.27 845.83 -117.77 864.59 -154.05 881.45 -50.04 900.86 133.7 924.33 271.5 947.8 259.18 974.23 112.45 1001.63 -60.78 1027.14 -152.98 1049.95 -104.56 1065.97 45.71 1075.14 218.11 1072.02 323.7 1053.23 328.14 1025.04 241.71 981.39 119.08 925.87 16.72 872.85 -40.55 822.6 -31.03 786.7 28.64 778.58 124.8 801.1 228.73 857.8 320.87 942.77 407.64 1045.8 472.57 1148.75 518.73 1230.71 559.62 1274.64 590.1 1267.39 613.58Q1267.39 613.58 1267.39 613.58" opacity="0.60"></path><path d="M1233.22 392.63C1184.57 413.75 1105.24 416.43 1011.46 402.71 917.57 390.33 838.54 365.9 784.01 338.07 758.29 325.03 760.76 327.81 785.29 361.76 829.45 429.96 880.68 534.94 930.23 663.78 979.56 780.43 1017.15 860.51 1040.95 869.42 1056.77 802.27 1059.4 675.71 1051.64 540.75 1038.36 468.24 1019.16 495.42 997.31 623.44 973.9 791.16 950.83 913.99 929.71 917.62 908.59 798.18 890.41 626.93 873.97 499.2 855.98 475.78 836.76 559.89 813.42 697.66 784.57 828.47 747.16 888.09 698.78 860.67 642.42 760.27 574.5 626.27 497.49 501.59 420.25 406.43 343.97 360.82 277.81 357.32 231.28 388.79 209.87 434.72 220.1 477.87 259.15 524.38 326.16 554.44 411.89 566.02 497.52 575.24 572.57 568.73 621.22 547.61 630.31 526.49 601.51 491.74 543.39 442.69 463.71 391.26 381.29 322.78 310.25 239.65 255.59 159.9 228.83 79.18 230.44 15.15 256.86 -13.9 304.61 1.37 365.35 68.84 436.34 165.83 508.26 274.79 575.33 353.19 640.63 358.62 696.93 280.05 743.68 133.75 786.65 -19.49 822.02 -115.62 851.25 -100.35 879.09 19.21 903.3 186.18 924.42 305.62 945.55 301.98 962.59 183.44 974.6 23.87 985.2 -95.99 988.27 -111.15 981.91 -23.15 971.77 127.29 950.26 272.79 917.53 361.94 883.01 375.03 841.42 319.99 798.12 231.03 765.06 129.88 742.35 55.23 737.92 19.58 758.3 18.19 804 50.2 874.13 99.85 960.66 164.28 1055.1 227.15 1142.92 279.37 1209.21 332.93 1242.31 371.5 1233.24 392.62Q1233.22 392.63 1233.22 392.63" opacity="0.29"></path><path d="M1199.21 181.76C1157.7 200.53 1090.74 215.01 1009.76 228.43 924.62 245.93 846.55 270.11 783.91 308.08 740.69 358.82 719.38 430.53 717.84 522.85 735.23 618.95 764.4 716.54 798.91 794.73 839.97 831.61 877.62 816.57 908.14 744.13 936.87 638.44 955.87 523.37 965.12 442.37 971.45 434.73 969.62 508.98 961.01 646.29 951.33 791.98 936.77 887.12 917.99 883.59 899.21 781.77 877.11 630.74 851.37 498.95 824.57 436.66 792.24 463.7 753.37 557.94 711.57 684.84 661.65 790.83 603.98 843.69 544.52 835.38 479.91 769.94 414.24 672.29 355.12 558.31 303.69 456.11 266.74 378.55 248.73 323.49 253.2 295.22 282.66 284.75 331.53 288.57 398.92 296.15 476.82 299.15 550.54 304.95 613.7 299.94 655.21 281.17 665.36 262.39 645.47 230.73 601.11 189.52 536.52 151.1 465.13 109.36 397.47 73 336.69 50.93 293.92 48.27 271.98 74.39 268.52 123.01 284.98 198.25 316.72 287.62 361.12 360.66 412.89 403.83 466.63 392.6 524.03 320.19 578.11 197.35 626.22 56.69 673.93 -51.31 714.73 -89.03 748.02 -33.99 780.81 90.54 806.84 237.77 825.61 339.59 844.4 343.12 855.04 251.78 857.67 113.34 859.79 -16.72 853.15 -80.28 838 -58.88 822.42 35.88 799.27 167.79 770.81 293.03 733.6 403.67 697.16 321.16 723.07 218.68 764.56 155.31 824.15 114.52 898.7 96.32 980.12 90.9 1062.19 100.87 1134.04 118.79 1185.65 140.78 1209.36 162.97 1199.23 181.75Q1199.21 181.76 1199.21 181.76" opacity="0.85"></path><path d="M1165.23 273.64C1075.48 306.5 931.47 387.68 796.74 515.84 705.85 639.45 676.81 757.81 692.19 775.49 743.13 668.2 792.89 479.6 819.99 393.03 846.11 535.61 843.37 788.39 810.51 849.58 777.65 634.17 717.78 421.76 634.71 439.96 550.66 639.78 449.62 791.45 355.61 783.73 297.15 646.06 291.34 477.65 358.14 357.31 468.79 263.44 599.48 212.32 689.23 179.46 685.31 146.6 602.22 135.11 489.26 172.02 377.1 235.42 317.32 352.55 315.72 447.15 357.27 411.8 428.33 225.27 500.46 1.37 579.68 -40.91 640.99 158.17 673.85 373.58 707.37 192.66 660.67 176.82 652.31 438.91 696.97 464.3 791.6 397.22 927.85 330.56 1064.9 259.35 1161.31 240.78 1165.23 273.64Q1165.23 273.64 1165.23 273.64" opacity="0.66"></path><path d="M1131.22 540.71C1058.91 568.88 940.76 629.96 819.22 695.69 717.05 730.18 654.64 709.58 629.65 602.58 636.31 469.36 655.53 363.11 668.47 396.97 686.8 576.54 685.24 781.51 657.07 815.62 628.9 639.57 576.8 429.78 509.66 364.22 447.91 469.36 384.72 633.42 341.15 735.31 329.22 751.33 361.76 682.22 443.28 592.58 544.18 486.59 650.91 411.88 723.22 383.72 726.04 355.55 668.69 376.59 581.28 433.76 479.7 474.6 404.3 499.75 368.3 446.81 360.13 308.01 383.63 114.07 421.22 -11.71 468.12 33.2 511.03 231.57 539.2 407.62 567.37 373.5 578.13 179.95 580.04 21.02 591.26 7.81 611.7 143.94 656.78 314.08 729.69 457.99 834.97 522.56 957.19 536.87 1065.26 519.95 1134.03 512.54 1131.24 540.7Q1131.22 540.71 1131.22 540.71" opacity="0.86"></path><path d="M1097.22 612.68C1041.05 636.15 948.98 641.3 847.49 615.65 749.42 574.95 671.95 491.02 620.32 386.36 589.3 323.99 574.54 331.7 565.07 445.88 562.12 619.99 551.99 769.31 528.52 781.62 505.05 643.82 470.46 457.02 432.73 341.2 401.52 341.95 379.65 434.87 379.91 545.12 400.78 647.5 453.35 692.83 534.21 691.75 618.49 667.97 701.05 633.99 757.22 610.52 764.73 587.05 729.69 576.31 669.04 559.41 588.9 519.81 517.21 437.85 467.69 304.7 430.19 163.69 418.12 45.88 425.11 27.92 438.86 126.53 460.56 303.82 484.03 441.62 507.5 429.31 530.52 289.5 557.45 132.6 591.13 35.62 639.83 52.8 708.08 145.94 788.37 281.36 884.95 401.93 982.29 483.3 1060.16 549.63 1104.73 589.2 1097.24 612.67Q1097.22 612.68 1097.22 612.68" opacity="0.24"></path><path d="M1063.24 389.65C1021.73 408.43 954.67 394.56 877.23 355.95 795.33 323.61 720.77 285.26 660.76 269.44 609.94 299.9 572.52 386.11 545.47 520.84 522.72 657.15 503.14 751.08 484.36 747.61 465.58 645.82 449.38 496.56 439.59 368.88 434.1 296.31 442.21 294.06 468.43 336.46 503.82 411.45 558.46 479.23 626.61 519.81 690.28 556.06 749.73 564.11 791.24 545.33 801.37 526.55 784.25 482.73 748.45 413.93 694.86 340.81 640.57 243.73 596.07 144.12 552.75 77.11 525.64 59.45 515.76 118.26 508.67 232.17 515.02 373.82 533.8 475.61 552.58 479.08 582.01 392.76 621.63 270.22 664.07 149.24 720.47 82.95 788.41 77.1 857.52 117.53 931.72 185.19 999.07 250.07 1048.64 321.23 1073.37 370.87 1063.24 389.65Q1063.24 389.65 1063.24 389.65" opacity="0.95"></path><path d="M1029.22 180.98C956.91 209.14 839.16 229.45 735.71 320.7 638.91 480 573.17 679.51 545.01 713.62 516.84 537.55 531.58 329.78 591.46 246.25 657.99 264.23 752.91 306.73 825.22 278.57 828.03 250.4 780.82 156.9 728.95 102 664.45 148.61 637.38 333.55 665.55 509.62 693.72 475.51 771.79 298.84 873.21 176.45 961.99 122.11 1032.03 152.81 1029.22 180.98Q1029.22 180.98 1029.22 180.98" opacity="0.11"></path><path d="M995.24 276.06C886.86 313.62 720.01 586.69 682.46 679.61 644.9 425 750.86 217.76 859.24 180.2 846.68 142.65 780.69 289 818.25 543.61 855.8 450.69 982.68 238.51 995.24 276.06Q995.24 276.06 995.24 276.06" opacity="0.83"></path></g></svg>